<?xml version="1.0" encoding="UTF-8"?><svg id="Layer_1" xmlns="http://www.w3.org/2000/svg" viewBox="0 0 179.37 97.44"><defs><style>.cls-1,.cls-2{fill:#231f20;}.cls-3{stroke-width:.22px;}.cls-3,.cls-4{fill:none;stroke:#231f20;stroke-miterlimit:2.61;}.cls-4{stroke-width:.5px;}.cls-2,.cls-5{fill-rule:evenodd;}.cls-5{fill:#fff;}</style></defs><rect class="cls-1" x=".73" y="84.35" width="177.91" height=".48"/><rect class="cls-4" x=".73" y="84.35" width="177.91" height=".48"/><path class="cls-2" d="M0,41.42v-.07c.55-.55,2.53-2.19,2.53-2.87v-2.19c.75-12.17,9.57-22.98,21.75-24.48h.96c4.65,.68,6.97,2.12,9.57,6.91,1.37,.21,2.46-1.03,2.46,1.57-.48,.2-.96,.48-1.44,.75,.14,1.5,.34,3.01,.55,4.51,0,.34,0,.68,.07,1.03,1.57-.55,3.21-1.44,4.92-1.44q.41,.68,.48,1.44c-1.78,1.03-4.03,1.98-5.54,2.6-.41,2.74-.96,5.47-1.78,8.62-5.13,11.35-17.85,22.57-28.58,10.87-1.85-.75-1.37-.62-1.03-1.64-1.03-1.78-1.5-3.35-1.91-4.65-1.57-.14-2.19-.62-3.01-.96"/><path class="cls-2" d="M56.89,51.06c-.07-.07-.14-.14-.14-.21-1.44-1.85-1.71-3.08-2.12-4.44v-.48c-.07-.34-.07-.68-.07-.96,.07-.82,.14-1.64,.27-2.39-.34,.14-1.16,1.44-2.12,2.32q-1.3,.89-2.6,1.37h-.89c-1.37-.34-1.91-1.57-1.98-1.98v-1.16q.41-1.78,.27-2.12c-.27,.2-.55,.48-.75,.75-2.8,2.8-5.13,6.22-7.59,9.37-1.5,.14-2.94,.27-4.38,.41,1.85-3.08,9.98-14.77,9.57-17.44-3.97-1.3-8.41,9.3-10.67,9.3,0-1.37,10.12-15.87,12.65-8.27v1.5c-.34,1.78-1.44,4.24-2.19,6.29q1.44-1.23,3.56-3.56c.55-.34,.75-.82,1.09-1.37,1.16-2.87,2.19-6.02,5.95-4.79,0,.41,.07,.82,.14,1.23-.96,1.03-1.91,2.05-2.87,3.15q-.07,0-.07,.07c-2.26,1.44-3.35,2.6-3.76,5.13v1.3c.34,1.57,2.19,1.23,3.76,.34,2.05-2.46,4.1-4.86,6.15-7.25,.96-.82,1.91-1.57,2.87-2.33,2.87-1.71,4.99-2.74,8.55-.96,.75,1.3,1.37,4.17-.82,5.54h-1.03c-1.44-.48-1.3-1.3-1.37-2.05,.41-1.23,1.37-1.37,1.78-2.67-1.23-1.85-3.69,0-4.44,.89q-.55,.34-2.6,2.87c-2.12,2.94-3.28,5.13-3.56,9.03,0,6.15,5.88,2.6,8.55-.07q.48-.34,1.85-2.19c.96-1.09,1.91-2.19,2.87-3.28,2.26-2.74,4.79-5.68,6.63-8.48,1.5-1.91,2.6-4.1,3.62-5.95,1.91-3.62,3.83-7.18,5.81-10.74,.89-1.71,1.78-3.42,2.74-5.06,.27-.07,.55-.07,.89-.07,.96-.14,1.91-.27,2.94-.41-.68,1.23-1.37,2.46-1.98,3.76-1.16,2.19-2.26,4.38-3.35,6.56-1.78,3.28-3.56,6.56-5.33,9.92-1.23,2.19-2.39,4.38-3.56,6.63q-.2,.07-1.91,3.56c.75-.89,1.57-1.71,2.39-2.53,1.5-1.57,3.01-3.15,4.51-4.72,2.46-1.57,4.24-2.87,5.54,1.03v1.37c-.27,.89-.55,1.85-.75,2.8q-.75,1.09-.89,1.78c-.75,0-3.56,5.2-4.1,6.02-.62,1.03-.89,1.64-.68,3.28,.48,.2,1.5,.07,2.26-.34q2.19-1.98,4.58-4.65c2.26-2.46,4.1-5.06,6.15-7.52,1.71-1.5,3.08-2.8,5.06-4.03,1.91-.96,2.8-1.16,5.4-1.16,1.09,.34,1.64,.55,2.32,2.33,0,.41,0,.82,.07,1.3-.21,.55-.41,1.16-.55,1.78-.89,1.37-2.53,2.67-3.83,3.76-1.64,.75-3.28,1.5-4.92,2.26-.62,.2-1.16,.41-1.71,.68-.34,.07-.68,.14-.96,.27-.07,.14-.14,.34-.14,.55-.07,.41-.14,.82-.21,1.3v1.5c.21,1.03,.21,1.57,1.91,2.33h.75c1.23-.27,2.26-.82,3.42-1.5,1.03-.82,3.21-2.46,3.69-3.62,1.71-2.19,3.42-4.38,5.2-6.5,1.09-1.3,4.92-5.27,5.47-6.98,.96-1.3,1.44-2.6,3.21-1.44,0,.82-.14,1.71-1.09,2.6-1.37,.34-1.23,.34-1.5,1.5v1.5c.07,.68,.21,1.37,.34,2.12,.34,1.85,.55,4.17,.68,6.43-.14,.62-.27,1.23-.41,1.91,.41-.55,.82-1.03,1.3-1.5,1.03-1.23,2.12-2.46,2.87-3.83,2.39-2.74,4.99-5.88,6.98-8.62,.68-1.16,1.44-2.32,2.19-3.42,.34-.68,.68-1.3,1.03-1.91-.89-.07-1.78-.14-2.6-.21,.14-.27,.27-.55,.48-.75h2.8c3.62-6.43,1.44-6.15,7.52-6.77-1.23,2.19-2.39,4.38-3.56,6.63-.07,.07-.14,.14-.14,.27,2.19,0,4.38,0,6.63,.07-.14,.21-.27,.41-.34,.68-2.32,0-4.65,.07-6.98,.14-.55,.89-1.03,1.85-1.5,2.8-.68,1.16-1.37,2.39-2.05,3.62-1.71,2.94-3.35,5.95-4.99,8.96q-.75,1.03-1.91,3.42c-.62,1.3-2.46,3.83,.34,4.38,2.53-1.5,4.24-3.42,6.15-5.47,2.12-2.67,4.24-5.33,6.36-7.93,2.12-2.53,6.56-7.86,8.62-2.32v1.16c-.41,1.71-2.19,4.92-2.19,6.63,2.53-2.46,4.38-4.58,5.68-7.66,1.71-2.94,6.91-4.03,4.03,.34-3.01,2.67-6.63,4.38-5.33,9.09,3.15,1.57,6.36-4.1,8.07-6.02,2.87-2.67,12.1-10.8,13.61-2.26,.68-1.09,1.37-2.19,2.05-3.21,1.3-.07,2.6-.14,3.9-.14-1.09,1.91-10.33,15.04-8.55,17.44,4.1,0,6.91-7.45,10.12-8.48,.07,.07,.14,.14,.27,.21v.14c-2.32,3.28-5.95,7.8-9.78,9.37-3.9-.41-3.08-2.39-3.08-5.33-5.2,6.36-10.05,7.86-10.67-.75v-1.16c-.07-.55-.07-1.09-.07-1.64-1.23,1.5-2.8,2.67-4.38,3.21h-.82c-3.97-1.98-.89-4.58-1.71-5.4-3.01,3.49-5.54,6.43-8.27,10.12-1.5,.62-3.08,.48-4.38,.55,3.08-5.13,6.15-10.26,9.3-15.32,1.37-6.43-6.43,2.87-7.25,3.9-.82,1.03-1.64,2.12-2.39,3.21-2.53,2.94-11.01,14.09-12.92,5.27v-1.5c.07-.21,.14-.41,.21-.62,.21-1.64,.96-2.87,1.5-3.97,.68-1.3,1.37-2.6,2.12-3.9h-.27c-.89,1.09-1.78,2.19-2.67,3.35-1.03,1.3-1.98,2.67-2.94,4.03-2.67,3.49-6.91,6.84-11.21,5.54-1.71-1.71-1.64-1.78-1.78-3.49,.34-1.44,2.53-2.94,3.01,0q-.48,1.23-.62,2.53c3.28,1.09,5.27-4.79,6.09-6.97,.21-2.05,.48-4.03,.75-6.02v-.14c0-.34,0-.68,.07-.96-.07-.34-.07-.68-.07-1.03-.07-.27-.14-.55-.14-.82-.55,.62-1.03,1.23-1.5,1.85q-2.67,3.08-2.87,3.62c-1.23,1.44-4.86,4.79-5.47,6.77-1.23,1.16-2.46,2.32-3.62,3.49-4.79,2.6-7.45,1.71-9.3-2.46-.14-.82-.27-1.64-.41-2.39,0-1.03,0-2.05,.07-3.08q-.82,1.37-3.15,4.1-.82,1.03-4.58,4.58c-3.56,1.78-4.58-.21-4.92-3.01v-1.57c.14-.82,.27-1.64,.48-2.39,1.5-2.26,3.01-4.51,4.58-6.7,.82-1.23,1.23-1.98,1.37-3.28-.75-.75-2.46,.68-2.74,1.16-1.5,1.5-3.28,3.15-4.65,4.99q-.55,.41-3.15,3.83c-1.3,1.71-3.9,4.1-4.51,6.09q-.27,.07-.89,.96c-1.3,.14-2.53,.34-3.76,.55q.07-.48,1.37-2.67c1.03-1.85,2.05-3.62,3.08-5.4,1.03-1.78,2.53-3.9,2.87-5.61-1.3,1.5-2.53,3.01-3.76,4.51-2.19,2.32-4.38,4.72-6.5,7.11-3.08,2.05-5.13,2.94-8.14,1.37"/><path class="cls-5" d="M159.61,50.79c-4.86-1.16,3.76-13.27,4.65-14.57,4.24-3.97,7.18-3.01,5.33,3.49-1.78,3.42-5.74,10.26-9.98,11.08"/><path class="cls-5" d="M19.69,49.9h-1.57c-3.69-.41-5.54-2.19-7.25-4.38,2.39-2.26,5.47-5.81,8.41-7.25,.75,3.08,3.56,2.39,5.61,.34,0-1.78-.75-2.6-.55-3.56q4.92-2.67,7.8-3.9c-1.09,8.07-2.87,17.03-12.45,18.74"/><path class="cls-5" d="M102.16,36.22c.41,.89,.89,1.85,1.37,2.8,.96-.55,1.91-1.09,2.94-1.57-2.46,3.69-4.92,5.27-8.89,6.63,.55-1.57,3.15-7.86,4.58-7.86"/><path class="cls-5" d="M23.8,31.92h-.75c-2.87,.96-3.15,1.91-3.97,4.79-3.42,1.91-6.5,4.45-9.57,6.63-1.16-2.19-1.57-4.17-1.91-5.68,.48-.21,5.4-4.65,7.18-5.88,1.91,1.09,2.46,1.16,4.99-.48,.41-1.09-.14-2.39-.07-2.87,3.97-2.12,7.04-3.62,11.28-5.27,.34,1.91,.75,3.83,1.16,5.74-2.6,1.37-5.2,2.8-7.8,4.24-.07-.41-.14-.75-.21-1.09-.14-.07-.27-.14-.34-.14"/><path class="cls-5" d="M102.16,36.22c2.05-2.05,7.11-4.38,4.31,1.23-1.03,.48-3.86,2.62-4.82,3.17-.48-.96,.92-3.51,.51-4.4"/><path class="cls-5" d="M7.18,34.31v-2.87c1.16-7.45,4.44-14.91,12.79-15.93h1.37c3.56,.41,6.02,1.64,8.48,5.4-3.42,1.71-6.84,3.49-10.19,5.27-.07-.62-.14-1.23-.14-1.78-3.76,0-4.72,2.39-5.33,5.61-1.09,.82-6.09,4.99-6.98,4.99v-.68"/><polygon class="cls-1" points="11.56 8.96 11.56 1.11 9.06 1.11 9.06 .11 15.11 .11 15.11 1.11 12.62 1.11 12.62 8.96 11.56 8.96"/><polygon class="cls-1" points="16.07 8.96 16.07 1.88 16.91 1.88 16.91 4.6 20.68 4.6 20.68 1.88 21.53 1.88 21.53 8.96 20.68 8.96 20.68 5.4 16.91 5.4 16.91 8.96 16.07 8.96"/><polygon class="cls-1" points="23.22 8.96 23.22 1.88 26.96 1.88 26.96 2.65 24.07 2.65 24.07 4.68 26.96 4.68 26.96 5.46 24.07 5.46 24.07 8.18 26.96 8.18 26.96 8.96 23.22 8.96"/><polygon class="cls-3" points="11.56 8.96 11.56 1.11 9.06 1.11 9.06 .11 15.11 .11 15.11 1.11 12.62 1.11 12.62 8.96 11.56 8.96"/><polygon class="cls-3" points="16.07 8.96 16.07 1.88 16.91 1.88 16.91 4.6 20.68 4.6 20.68 1.88 21.53 1.88 21.53 8.96 20.68 8.96 20.68 5.4 16.91 5.4 16.91 8.96 16.07 8.96"/><polygon class="cls-3" points="23.22 8.96 23.22 1.88 26.96 1.88 26.96 2.65 24.07 2.65 24.07 4.68 26.96 4.68 26.96 5.46 24.07 5.46 24.07 8.18 26.96 8.18 26.96 8.96 23.22 8.96"/><path class="cls-1" d="M84.64,60.92c0-.39,.07-.76,.21-1.1,.14-.34,.35-.65,.63-.92,.27-.27,.58-.48,.93-.62,.35-.14,.72-.21,1.11-.21s.75,.07,1.09,.21c.35,.14,.66,.35,.94,.63,.27,.27,.48,.57,.63,.92,.14,.35,.21,.71,.21,1.09s-.07,.75-.21,1.09c-.14,.34-.35,.65-.63,.91-.28,.28-.6,.49-.94,.64-.35,.15-.71,.22-1.09,.22s-.76-.07-1.11-.22c-.35-.14-.66-.35-.93-.62-.27-.28-.48-.59-.63-.93-.14-.34-.21-.7-.21-1.09m.96,0c0,.56,.19,1.03,.56,1.42,.37,.39,.83,.58,1.36,.58s.98-.19,1.35-.58c.37-.39,.55-.86,.55-1.42s-.19-1.03-.55-1.42c-.37-.39-.82-.58-1.35-.58s-.99,.19-1.36,.58c-.37,.39-.56,.86-.56,1.42Z"/><path class="cls-1" d="M92.04,63.55v-4.54h-1.02v-.75h1.02v-1.53c0-.88,.11-1.47,.33-1.78,.22-.31,.62-.46,1.19-.46,.14,0,.28,0,.41,.03,.13,.02,.25,.05,.37,.09v.94c-.11-.07-.23-.11-.35-.15-.12-.03-.24-.05-.36-.05-.26,0-.45,.08-.55,.25-.1,.17-.15,.59-.15,1.25v1.41h1.41v.75h-1.38v4.54h-.92Z"/><polygon class="cls-1" points="7.17 81.54 7.17 69.81 15.42 78.82 15.42 70.25 16.7 70.25 16.7 81.98 8.45 73.06 8.45 81.54 7.17 81.54"/><path class="cls-1" d="M30.93,75.92c0,.81-.15,1.57-.45,2.28-.3,.72-.73,1.35-1.3,1.9-.57,.56-1.23,.98-1.97,1.28-.74,.3-1.51,.45-2.31,.45s-1.56-.15-2.3-.45c-.74-.3-1.39-.73-1.96-1.28-.58-.56-1.01-1.2-1.32-1.91-.3-.71-.45-1.47-.45-2.27s.15-1.57,.45-2.29c.3-.72,.74-1.35,1.32-1.91,.57-.55,1.22-.97,1.96-1.27,.74-.3,1.51-.45,2.3-.45s1.57,.15,2.32,.45c.74,.3,1.4,.72,1.96,1.27,.57,.55,1,1.19,1.3,1.91,.3,.72,.45,1.48,.45,2.29m-6.03,4.66c.62,0,1.2-.12,1.76-.35,.56-.23,1.06-.58,1.51-1.02,.44-.44,.78-.94,1.01-1.5,.23-.56,.35-1.15,.35-1.78s-.12-1.23-.35-1.8c-.23-.57-.57-1.07-1.01-1.51-.44-.44-.94-.78-1.5-1.01-.56-.23-1.15-.35-1.77-.35s-1.22,.12-1.78,.35c-.56,.23-1.05,.57-1.49,1.01-.44,.45-.78,.95-1.01,1.52-.23,.57-.35,1.16-.35,1.8s.11,1.22,.34,1.77c.23,.56,.57,1.06,1.02,1.51,.45,.45,.95,.79,1.5,1.03,.55,.23,1.14,.35,1.76,.35Z"/><path class="cls-1" d="M34.44,71.39v3.77h1.02c1.05,0,1.75-.13,2.11-.41,.36-.27,.53-.74,.53-1.41,0-.72-.18-1.23-.55-1.52-.37-.29-1.06-.43-2.09-.43h-1.02Zm-1.31,10.15v-11.28h2.65c.75,0,1.31,.04,1.66,.13,.35,.09,.66,.23,.93,.44,.33,.26,.59,.61,.78,1.05,.19,.44,.28,.93,.28,1.46,0,.92-.26,1.63-.77,2.11-.52,.48-1.27,.72-2.27,.72h-.24l4.31,5.38h-1.7l-4.12-5.38h-.19v5.38h-1.31Z"/><polygon class="cls-1" points="43.55 81.54 43.55 71.53 40.36 71.53 40.36 70.25 48.07 70.25 48.07 71.53 44.9 71.53 44.9 81.54 43.55 81.54"/><polygon class="cls-1" points="49.57 81.54 49.57 70.25 50.91 70.25 50.91 74.59 56.91 74.59 56.91 70.25 58.27 70.25 58.27 81.54 56.91 81.54 56.91 75.87 50.91 75.87 50.91 81.54 49.57 81.54"/><polygon class="cls-1" points="60.97 81.54 60.97 70.25 66.92 70.25 66.92 71.48 62.31 71.48 62.31 74.72 66.92 74.72 66.92 75.97 62.31 75.97 62.31 80.29 66.92 80.29 66.92 81.54 60.97 81.54"/><path class="cls-1" d="M70.5,71.39v3.77h1.02c1.05,0,1.75-.13,2.11-.41,.36-.27,.53-.74,.53-1.41,0-.72-.18-1.23-.55-1.52-.37-.29-1.06-.43-2.09-.43h-1.02Zm-1.31,10.15v-11.28h2.65c.75,0,1.31,.04,1.66,.13,.35,.09,.66,.23,.93,.44,.33,.26,.59,.61,.78,1.05,.19,.44,.28,.93,.28,1.46,0,.92-.26,1.63-.77,2.11-.52,.48-1.27,.72-2.27,.72h-.24l4.31,5.38h-1.7l-4.12-5.38h-.19v5.38h-1.31Z"/><polygon class="cls-1" points="77.63 81.54 77.63 69.81 85.89 78.82 85.89 70.25 87.17 70.25 87.17 81.98 78.91 73.06 78.91 81.54 77.63 81.54"/><polygon class="cls-1" points="94.52 81.54 94.52 69.81 102.77 78.82 102.77 70.25 104.05 70.25 104.05 81.98 95.79 73.06 95.79 81.54 94.52 81.54"/><polygon class="cls-1" points="106.74 81.54 106.74 70.25 112.69 70.25 112.69 71.48 108.08 71.48 108.08 74.72 112.69 74.72 112.69 75.97 108.08 75.97 108.08 80.29 112.69 80.29 112.69 81.54 106.74 81.54"/><polygon class="cls-1" points="113.5 70.25 114.95 70.25 117.81 78.55 120.79 69.81 123.8 78.55 126.68 70.25 128.12 70.25 123.76 81.98 120.81 73.25 117.87 81.98 113.5 70.25"/><polygon class="cls-1" points="136.51 81.54 136.51 76.37 132.69 70.25 134.23 70.25 137.19 75.15 140.12 70.25 141.67 70.25 137.85 76.37 137.85 81.54 136.51 81.54"/><path class="cls-1" d="M154.03,75.92c0,.81-.15,1.57-.45,2.28-.3,.72-.73,1.35-1.3,1.9-.57,.56-1.23,.98-1.97,1.28-.74,.3-1.51,.45-2.31,.45s-1.56-.15-2.3-.45c-.74-.3-1.39-.73-1.96-1.28-.58-.56-1.01-1.2-1.32-1.91-.3-.71-.45-1.47-.45-2.27s.15-1.57,.45-2.29c.3-.72,.74-1.35,1.32-1.91,.57-.55,1.22-.97,1.96-1.27,.74-.3,1.51-.45,2.3-.45s1.57,.15,2.32,.45c.74,.3,1.4,.72,1.96,1.27,.57,.55,1,1.19,1.3,1.91,.3,.72,.45,1.48,.45,2.29m-6.03,4.66c.62,0,1.2-.12,1.76-.35,.56-.23,1.06-.58,1.51-1.02,.44-.44,.78-.94,1.01-1.5,.23-.56,.35-1.15,.35-1.78s-.12-1.23-.35-1.8c-.23-.57-.57-1.07-1.01-1.51-.44-.44-.94-.78-1.5-1.01-.56-.23-1.15-.35-1.77-.35s-1.22,.12-1.78,.35c-.56,.23-1.05,.57-1.49,1.01-.44,.45-.78,.95-1.01,1.52-.23,.57-.35,1.16-.35,1.8s.11,1.22,.34,1.77c.23,.56,.57,1.06,1.02,1.51,.45,.45,.95,.79,1.5,1.03,.55,.23,1.14,.35,1.76,.35Z"/><path class="cls-1" d="M157.53,71.39v3.77h1.02c1.05,0,1.75-.13,2.11-.41,.36-.27,.53-.74,.53-1.41,0-.72-.18-1.23-.55-1.52-.37-.29-1.06-.43-2.09-.43h-1.02Zm-1.31,10.15v-11.28h2.65c.75,0,1.31,.04,1.66,.13,.35,.09,.66,.23,.93,.44,.33,.26,.59,.61,.78,1.05,.19,.44,.28,.93,.28,1.46,0,.92-.26,1.63-.77,2.11-.52,.48-1.27,.72-2.27,.72h-.24l4.31,5.38h-1.7l-4.12-5.38h-.19v5.38h-1.31Z"/><polygon class="cls-1" points="164.67 81.54 164.67 70.25 165.99 70.25 165.99 75.27 170.73 70.25 172.33 70.25 167.49 75.33 172.81 81.54 171.08 81.54 165.99 75.46 165.99 81.54 164.67 81.54"/><path class="cls-3" d="M84.64,60.92c0-.39,.07-.76,.21-1.1,.14-.34,.35-.65,.63-.92,.27-.27,.58-.48,.93-.62,.35-.14,.72-.21,1.11-.21s.75,.07,1.09,.21c.35,.14,.66,.35,.94,.63,.27,.27,.48,.57,.63,.92,.14,.35,.21,.71,.21,1.09s-.07,.75-.21,1.09c-.14,.34-.35,.65-.63,.91-.28,.28-.6,.49-.94,.64-.35,.15-.71,.22-1.09,.22s-.76-.07-1.11-.22c-.35-.14-.66-.35-.93-.62-.27-.28-.48-.59-.63-.93-.14-.34-.21-.7-.21-1.09Zm.96,0c0,.56,.19,1.03,.56,1.42,.37,.39,.83,.58,1.36,.58s.98-.19,1.35-.58c.37-.39,.55-.86,.55-1.42s-.19-1.03-.55-1.42c-.37-.39-.82-.58-1.35-.58s-.99,.19-1.36,.58c-.37,.39-.56,.86-.56,1.42Z"/><path class="cls-3" d="M92.04,63.55v-4.54h-1.02v-.75h1.02v-1.53c0-.88,.11-1.47,.33-1.78,.22-.31,.62-.46,1.19-.46,.14,0,.28,0,.41,.03,.13,.02,.25,.05,.37,.09v.94c-.11-.07-.23-.11-.35-.15-.12-.03-.24-.05-.36-.05-.26,0-.45,.08-.55,.25-.1,.17-.15,.59-.15,1.25v1.41h1.41v.75h-1.38v4.54h-.92Z"/><polygon class="cls-3" points="7.17 81.54 7.17 69.81 15.42 78.82 15.42 70.25 16.7 70.25 16.7 81.98 8.45 73.06 8.45 81.54 7.17 81.54"/><path class="cls-3" d="M30.93,75.92c0,.81-.15,1.57-.45,2.28-.3,.72-.73,1.35-1.3,1.9-.57,.56-1.23,.98-1.97,1.28-.74,.3-1.51,.45-2.31,.45s-1.56-.15-2.3-.45c-.74-.3-1.39-.73-1.96-1.28-.58-.56-1.01-1.2-1.32-1.91-.3-.71-.45-1.47-.45-2.27s.15-1.57,.45-2.29c.3-.72,.74-1.35,1.32-1.91,.57-.55,1.22-.97,1.96-1.27,.74-.3,1.51-.45,2.3-.45s1.57,.15,2.32,.45c.74,.3,1.4,.72,1.96,1.27,.57,.55,1,1.19,1.3,1.91,.3,.72,.45,1.48,.45,2.29Zm-6.03,4.66c.62,0,1.2-.12,1.76-.35,.56-.23,1.06-.58,1.51-1.02,.44-.44,.78-.94,1.01-1.5,.23-.56,.35-1.15,.35-1.78s-.12-1.23-.35-1.8c-.23-.57-.57-1.07-1.01-1.51-.44-.44-.94-.78-1.5-1.01-.56-.23-1.15-.35-1.77-.35s-1.22,.12-1.78,.35c-.56,.23-1.05,.57-1.49,1.01-.44,.45-.78,.95-1.01,1.52-.23,.57-.35,1.16-.35,1.8s.11,1.22,.34,1.77c.23,.56,.57,1.06,1.02,1.51,.45,.45,.95,.79,1.5,1.03,.55,.23,1.14,.35,1.76,.35Z"/><path class="cls-3" d="M34.44,71.39v3.77h1.02c1.05,0,1.75-.13,2.11-.41,.36-.27,.53-.74,.53-1.41,0-.72-.18-1.23-.55-1.52-.37-.29-1.06-.43-2.09-.43h-1.02Zm-1.31,10.15v-11.28h2.65c.75,0,1.31,.04,1.66,.13,.35,.09,.66,.23,.93,.44,.33,.26,.59,.61,.78,1.05,.19,.44,.28,.93,.28,1.46,0,.92-.26,1.63-.77,2.11-.52,.48-1.27,.72-2.27,.72h-.24l4.31,5.38h-1.7l-4.12-5.38h-.19v5.38h-1.31Z"/><polygon class="cls-3" points="43.55 81.54 43.55 71.53 40.36 71.53 40.36 70.25 48.07 70.25 48.07 71.53 44.9 71.53 44.9 81.54 43.55 81.54"/><polygon class="cls-3" points="49.57 81.54 49.57 70.25 50.91 70.25 50.91 74.59 56.91 74.59 56.91 70.25 58.27 70.25 58.27 81.54 56.91 81.54 56.91 75.87 50.91 75.87 50.91 81.54 49.57 81.54"/><polygon class="cls-3" points="60.97 81.54 60.97 70.25 66.92 70.25 66.92 71.48 62.31 71.48 62.31 74.72 66.92 74.72 66.92 75.97 62.31 75.97 62.31 80.29 66.92 80.29 66.92 81.54 60.97 81.54"/><path class="cls-3" d="M70.5,71.39v3.77h1.02c1.05,0,1.75-.13,2.11-.41,.36-.27,.53-.74,.53-1.41,0-.72-.18-1.23-.55-1.52-.37-.29-1.06-.43-2.09-.43h-1.02Zm-1.31,10.15v-11.28h2.65c.75,0,1.31,.04,1.66,.13,.35,.09,.66,.23,.93,.44,.33,.26,.59,.61,.78,1.05,.19,.44,.28,.93,.28,1.46,0,.92-.26,1.63-.77,2.11-.52,.48-1.27,.72-2.27,.72h-.24l4.31,5.38h-1.7l-4.12-5.38h-.19v5.38h-1.31Z"/><polygon class="cls-3" points="77.63 81.54 77.63 69.81 85.89 78.82 85.89 70.25 87.17 70.25 87.17 81.98 78.91 73.06 78.91 81.54 77.63 81.54"/><polygon class="cls-3" points="94.52 81.54 94.52 69.81 102.77 78.82 102.77 70.25 104.05 70.25 104.05 81.98 95.79 73.06 95.79 81.54 94.52 81.54"/><polygon class="cls-3" points="106.74 81.54 106.74 70.25 112.69 70.25 112.69 71.48 108.08 71.48 108.08 74.72 112.69 74.72 112.69 75.97 108.08 75.97 108.08 80.29 112.69 80.29 112.69 81.54 106.74 81.54"/><polygon class="cls-3" points="113.5 70.25 114.95 70.25 117.81 78.55 120.79 69.81 123.8 78.55 126.68 70.25 128.12 70.25 123.76 81.98 120.81 73.25 117.87 81.98 113.5 70.25"/><polygon class="cls-3" points="136.51 81.54 136.51 76.37 132.69 70.25 134.23 70.25 137.19 75.15 140.12 70.25 141.67 70.25 137.85 76.37 137.85 81.54 136.51 81.54"/><path class="cls-3" d="M154.03,75.92c0,.81-.15,1.57-.45,2.28-.3,.72-.73,1.35-1.3,1.9-.57,.56-1.23,.98-1.97,1.28-.74,.3-1.51,.45-2.31,.45s-1.56-.15-2.3-.45c-.74-.3-1.39-.73-1.96-1.28-.58-.56-1.01-1.2-1.32-1.91-.3-.71-.45-1.47-.45-2.27s.15-1.57,.45-2.29c.3-.72,.74-1.35,1.32-1.91,.57-.55,1.22-.97,1.96-1.27,.74-.3,1.51-.45,2.3-.45s1.57,.15,2.32,.45c.74,.3,1.4,.72,1.96,1.27,.57,.55,1,1.19,1.3,1.91,.3,.72,.45,1.48,.45,2.29Zm-6.03,4.66c.62,0,1.2-.12,1.76-.35,.56-.23,1.06-.58,1.51-1.02,.44-.44,.78-.94,1.01-1.5,.23-.56,.35-1.15,.35-1.78s-.12-1.23-.35-1.8c-.23-.57-.57-1.07-1.01-1.51-.44-.44-.94-.78-1.5-1.01-.56-.23-1.15-.35-1.77-.35s-1.22,.12-1.78,.35c-.56,.23-1.05,.57-1.49,1.01-.44,.45-.78,.95-1.01,1.52-.23,.57-.35,1.16-.35,1.8s.11,1.22,.34,1.77c.23,.56,.57,1.06,1.02,1.51,.45,.45,.95,.79,1.5,1.03,.55,.23,1.14,.35,1.76,.35Z"/><path class="cls-3" d="M157.53,71.39v3.77h1.02c1.05,0,1.75-.13,2.11-.41,.36-.27,.53-.74,.53-1.41,0-.72-.18-1.23-.55-1.52-.37-.29-1.06-.43-2.09-.43h-1.02Zm-1.31,10.15v-11.28h2.65c.75,0,1.31,.04,1.66,.13,.35,.09,.66,.23,.93,.44,.33,.26,.59,.61,.78,1.05,.19,.44,.28,.93,.28,1.46,0,.92-.26,1.63-.77,2.11-.52,.48-1.27,.72-2.27,.72h-.24l4.31,5.38h-1.7l-4.12-5.38h-.19v5.38h-1.31Z"/><polygon class="cls-3" points="164.67 81.54 164.67 70.25 165.99 70.25 165.99 75.27 170.73 70.25 172.33 70.25 167.49 75.33 172.81 81.54 171.08 81.54 165.99 75.46 165.99 81.54 164.67 81.54"/><path class="cls-1" d="M29.12,93.73l.79-.11c.09,.45,.24,.77,.46,.97,.22,.2,.48,.3,.8,.3,.38,0,.69-.13,.95-.39,.26-.26,.38-.58,.38-.96s-.12-.66-.36-.9c-.24-.24-.54-.35-.91-.35-.15,0-.34,.03-.56,.09l.09-.69c.05,0,.1,0,.13,0,.34,0,.64-.09,.91-.26,.27-.18,.41-.45,.41-.81,0-.29-.1-.53-.3-.72-.2-.19-.45-.28-.76-.28s-.57,.1-.77,.29c-.21,.2-.34,.49-.4,.88l-.79-.14c.1-.53,.32-.94,.66-1.24,.34-.29,.77-.44,1.28-.44,.35,0,.68,.07,.97,.23,.3,.15,.52,.36,.68,.61,.16,.26,.24,.54,.24,.83,0,.28-.08,.53-.22,.76-.15,.23-.37,.41-.66,.54,.38,.09,.68,.27,.89,.55,.21,.28,.31,.62,.31,1.04,0,.56-.21,1.04-.61,1.43-.41,.39-.93,.59-1.56,.59-.57,0-1.03-.17-1.41-.51-.38-.34-.59-.77-.64-1.31"/><path class="cls-1" d="M34.13,93.75l.83-.06c.06,.4,.2,.71,.43,.91,.22,.2,.49,.3,.81,.3,.39,0,.71-.14,.97-.43,.26-.29,.39-.67,.39-1.14s-.12-.81-.38-1.07c-.25-.26-.58-.39-.99-.39-.26,0-.49,.06-.69,.18-.2,.12-.36,.27-.48,.45l-.75-.11,.62-3.31h3.2v.76h-2.56l-.34,1.74c.39-.27,.79-.41,1.21-.41,.56,0,1.03,.19,1.42,.58,.39,.39,.58,.89,.58,1.5s-.17,1.09-.51,1.51c-.41,.52-.98,.78-1.69,.78-.58,0-1.06-.16-1.43-.49-.37-.33-.58-.76-.63-1.31"/><path class="cls-1" d="M46.35,92.8h2.2l-.67-1.79c-.2-.54-.36-.99-.46-1.35-.09,.42-.21,.83-.36,1.24l-.71,1.89Zm-1.85,2.65l2.47-6.44h.94l2.62,6.44h-.97l-.75-1.95h-2.71l-.7,1.95h-.9Z"/><path class="cls-1" d="M51.11,95.44v-4.67h.71v.66c.34-.51,.84-.76,1.48-.76,.28,0,.54,.05,.78,.15,.24,.1,.41,.23,.53,.4,.12,.16,.2,.36,.25,.58,.03,.15,.04,.4,.04,.77v2.87h-.79v-2.84c0-.32-.03-.56-.09-.72-.06-.16-.17-.29-.33-.38-.16-.09-.34-.14-.55-.14-.34,0-.63,.11-.87,.32-.24,.21-.37,.62-.37,1.22v2.55h-.79Z"/><path class="cls-1" d="M56.11,95.44v-4.67h.71v.66c.34-.51,.84-.76,1.48-.76,.28,0,.54,.05,.78,.15,.24,.1,.41,.23,.53,.4,.12,.16,.2,.36,.25,.58,.03,.15,.04,.4,.04,.77v2.87h-.79v-2.84c0-.32-.03-.56-.09-.72-.06-.16-.17-.29-.33-.38-.16-.09-.34-.14-.55-.14-.34,0-.63,.11-.87,.32-.24,.21-.37,.62-.37,1.22v2.55h-.79Z"/><path class="cls-1" d="M61.12,95.44v-4.67h.79v4.67h-.79Zm0-5.54v-.9h.79v.9h-.79Z"/><path class="cls-1" d="M64.39,95.44l-1.76-4.67h.85l1,2.8c.11,.3,.21,.61,.3,.94,.07-.25,.17-.54,.3-.89l1.04-2.85h.81l-1.77,4.67h-.76Z"/><path class="cls-1" d="M68.21,92.66h2.6c-.03-.39-.13-.69-.3-.88-.25-.3-.58-.46-.98-.46-.36,0-.67,.12-.92,.36-.25,.24-.38,.57-.41,.98m2.59,1.27l.82,.11c-.13,.48-.37,.85-.71,1.11-.35,.26-.79,.39-1.33,.39-.68,0-1.22-.21-1.62-.63-.4-.42-.6-1.01-.6-1.77s.2-1.39,.6-1.82c.4-.43,.93-.65,1.57-.65s1.13,.21,1.53,.64c.39,.42,.59,1.02,.59,1.79,0,.05,0,.12,0,.21h-3.48c.03,.51,.17,.9,.44,1.18,.26,.27,.58,.41,.97,.41,.29,0,.54-.08,.74-.23,.21-.15,.37-.4,.49-.73Z"/><path class="cls-1" d="M72.61,95.44v-4.67h.71v.72c.18-.33,.35-.55,.5-.66,.15-.11,.32-.16,.51-.16,.27,0,.54,.08,.81,.25l-.28,.73c-.19-.11-.38-.16-.58-.16-.17,0-.33,.05-.46,.16-.14,.1-.23,.25-.29,.43-.09,.28-.13,.59-.13,.92v2.44h-.79Z"/><path class="cls-1" d="M75.3,94.05l.78-.13c.04,.31,.17,.55,.37,.72,.2,.17,.48,.25,.84,.25s.63-.07,.81-.22c.18-.15,.26-.32,.26-.52,0-.18-.08-.32-.24-.42-.11-.07-.38-.16-.81-.27-.58-.15-.98-.27-1.2-.38-.22-.11-.39-.25-.51-.44-.12-.19-.17-.4-.17-.62,0-.21,.05-.4,.14-.58,.1-.18,.23-.32,.39-.44,.12-.09,.29-.17,.5-.23,.21-.06,.44-.09,.68-.09,.37,0,.69,.05,.96,.16,.28,.11,.48,.25,.61,.43,.13,.18,.22,.42,.27,.73l-.77,.11c-.03-.24-.14-.43-.3-.57-.17-.14-.41-.2-.71-.2-.36,0-.62,.06-.78,.18-.15,.12-.23,.26-.23,.42,0,.1,.03,.2,.1,.28,.06,.08,.16,.15,.3,.21,.08,.03,.31,.1,.7,.2,.56,.15,.95,.27,1.17,.37,.22,.09,.4,.23,.52,.41,.13,.18,.19,.41,.19,.68s-.08,.51-.23,.74c-.15,.23-.38,.41-.67,.54-.29,.13-.62,.19-.99,.19-.61,0-1.07-.13-1.39-.38-.32-.25-.52-.62-.61-1.12"/><path class="cls-1" d="M83.11,93.1c-.29,.12-.72,.22-1.3,.3-.33,.05-.56,.1-.69,.16-.14,.06-.24,.14-.31,.26-.07,.11-.11,.24-.11,.38,0,.21,.08,.38,.24,.52,.16,.14,.39,.21,.7,.21s.58-.07,.81-.2c.24-.13,.41-.31,.52-.54,.09-.18,.13-.44,.13-.79v-.29Zm.07,1.75c-.29,.25-.58,.43-.85,.53-.27,.1-.56,.15-.87,.15-.51,0-.91-.12-1.18-.38-.28-.25-.41-.57-.41-.96,0-.23,.05-.44,.16-.63,.11-.19,.24-.34,.41-.45,.17-.11,.36-.2,.57-.26,.16-.04,.39-.08,.7-.12,.64-.08,1.11-.17,1.41-.27,0-.11,0-.18,0-.21,0-.32-.08-.55-.22-.68-.2-.18-.5-.27-.9-.27-.37,0-.65,.07-.83,.2-.18,.13-.31,.36-.39,.69l-.77-.11c.07-.33,.19-.6,.35-.8,.16-.2,.4-.36,.7-.47,.3-.11,.66-.17,1.06-.17s.72,.05,.98,.14c.25,.09,.43,.21,.55,.35,.12,.14,.2,.32,.25,.54,.03,.13,.04,.38,.04,.73v1.05c0,.73,.02,1.2,.05,1.39,.03,.2,.1,.38,.19,.56h-.83c-.08-.17-.13-.36-.15-.59Z"/><path class="cls-1" d="M85.12,95.44v-4.67h.71v.72c.18-.33,.35-.55,.5-.66,.15-.11,.32-.16,.51-.16,.27,0,.54,.08,.81,.25l-.28,.73c-.19-.11-.38-.16-.58-.16-.17,0-.33,.05-.46,.16-.14,.1-.23,.25-.29,.43-.09,.28-.13,.59-.13,.92v2.44h-.79Z"/><path class="cls-1" d="M88.09,97.24l-.09-.73c.17,.05,.32,.07,.45,.07,.18,0,.32-.03,.42-.09,.11-.06,.19-.14,.26-.25,.05-.08,.13-.28,.24-.59,.01-.04,.04-.11,.07-.19l-1.77-4.69h.85l.97,2.7c.13,.34,.24,.7,.34,1.08,.09-.36,.2-.71,.33-1.05l1-2.72h.79l-1.77,4.75c-.19,.51-.34,.86-.45,1.06-.14,.26-.3,.45-.48,.57-.18,.12-.4,.18-.65,.18-.15,0-.32-.03-.51-.09"/><path class="cls-1" d="M96.63,97.33c-.44-.55-.8-1.19-1.11-1.93-.3-.74-.45-1.5-.45-2.29,0-.7,.11-1.37,.34-2,.26-.74,.67-1.48,1.22-2.21h.57c-.35,.61-.59,1.04-.7,1.31-.18,.4-.32,.82-.42,1.26-.13,.55-.19,1.1-.19,1.65,0,1.41,.44,2.82,1.31,4.22h-.57Z"/><path class="cls-1" d="M100.87,95.44h-.79v-5.04c-.19,.18-.44,.36-.75,.55-.31,.18-.59,.32-.83,.41v-.77c.44-.21,.83-.46,1.16-.76,.33-.3,.57-.58,.7-.86h.51v6.47Z"/><path class="cls-1" d="M106.26,91.11c0-.45-.12-.81-.36-1.08-.24-.27-.53-.4-.87-.4s-.66,.14-.92,.43c-.26,.29-.39,.66-.39,1.11,0,.41,.12,.74,.37,1,.25,.26,.55,.38,.92,.38s.67-.13,.9-.38c.24-.26,.35-.61,.35-1.06m-3.23,2.84l.76-.06c.06,.36,.19,.62,.37,.78,.18,.16,.41,.24,.7,.24,.24,0,.46-.06,.64-.17,.18-.11,.33-.26,.45-.45,.12-.19,.21-.44,.29-.75,.08-.32,.12-.64,.12-.97,0-.03,0-.09,0-.16-.16,.25-.37,.46-.65,.61-.27,.16-.57,.24-.89,.24-.53,0-.98-.19-1.35-.58-.37-.39-.55-.9-.55-1.53s.19-1.18,.58-1.58c.38-.4,.87-.6,1.45-.6,.42,0,.8,.11,1.15,.34,.35,.22,.61,.55,.79,.96,.18,.42,.27,1.02,.27,1.81s-.09,1.48-.27,1.97c-.18,.49-.45,.86-.8,1.11-.35,.25-.76,.38-1.24,.38-.5,0-.91-.14-1.23-.42-.32-.28-.51-.67-.57-1.18Z"/><path class="cls-1" d="M108.72,93.59c0,.23,.05,.44,.16,.66,.1,.21,.26,.37,.48,.49,.21,.12,.44,.17,.68,.17,.38,0,.69-.12,.94-.36,.24-.24,.37-.55,.37-.93s-.13-.7-.38-.95c-.25-.25-.57-.37-.95-.37s-.68,.12-.93,.37c-.24,.25-.36,.55-.36,.92m.26-2.98c0,.31,.1,.56,.29,.75,.2,.19,.45,.29,.77,.29s.56-.1,.75-.29c.19-.19,.29-.43,.29-.71s-.1-.54-.3-.73c-.2-.2-.45-.3-.75-.3s-.56,.1-.75,.29c-.2,.19-.3,.42-.3,.69Zm.16,1.34c-.33-.12-.57-.29-.73-.51-.16-.22-.24-.49-.24-.8,0-.47,.17-.86,.5-1.18,.34-.32,.78-.48,1.34-.48s1.01,.16,1.36,.49c.34,.33,.51,.72,.51,1.19,0,.3-.08,.56-.23,.78-.16,.22-.39,.39-.71,.51,.39,.13,.69,.34,.9,.62,.21,.29,.31,.63,.31,1.03,0,.55-.2,1.01-.58,1.39-.39,.38-.9,.56-1.54,.56s-1.15-.19-1.54-.56c-.39-.38-.58-.85-.58-1.41,0-.42,.11-.77,.32-1.05,.21-.28,.52-.48,.91-.58Z"/><path class="cls-1" d="M113.72,93.59c0,.23,.05,.44,.16,.66,.1,.21,.26,.37,.48,.49,.21,.12,.44,.17,.68,.17,.38,0,.69-.12,.94-.36,.24-.24,.37-.55,.37-.93s-.13-.7-.38-.95c-.25-.25-.57-.37-.95-.37s-.68,.12-.93,.37c-.24,.25-.36,.55-.36,.92m.26-2.98c0,.31,.1,.56,.29,.75,.2,.19,.45,.29,.77,.29s.56-.1,.75-.29c.19-.19,.29-.43,.29-.71s-.1-.54-.3-.73c-.2-.2-.45-.3-.75-.3s-.55,.1-.75,.29c-.2,.19-.3,.42-.3,.69Zm.16,1.34c-.33-.12-.57-.29-.73-.51-.16-.22-.24-.49-.24-.8,0-.47,.17-.86,.5-1.18,.34-.32,.78-.48,1.34-.48s1.01,.16,1.36,.49c.34,.33,.51,.72,.51,1.19,0,.3-.08,.56-.23,.78-.16,.22-.39,.39-.71,.51,.39,.13,.69,.34,.9,.62,.21,.29,.31,.63,.31,1.03,0,.55-.19,1.01-.58,1.39-.39,.38-.9,.56-1.54,.56s-1.15-.19-1.54-.56c-.39-.38-.58-.85-.58-1.41,0-.42,.11-.77,.32-1.05,.21-.28,.52-.48,.91-.58Z"/><rect class="cls-1" x="120.03" y="92.79" width="5" height=".64"/><path class="cls-1" d="M132.08,94.69v.76h-4.27c0-.19,.03-.37,.09-.55,.11-.29,.28-.58,.53-.86,.24-.28,.59-.6,1.03-.97,.7-.57,1.17-1.03,1.42-1.36,.25-.34,.37-.65,.37-.95s-.11-.58-.34-.79c-.22-.21-.52-.32-.88-.32-.38,0-.69,.11-.92,.34-.23,.23-.35,.54-.35,.95l-.81-.08c.06-.61,.27-1.07,.63-1.39,.36-.32,.85-.48,1.47-.48s1.11,.17,1.47,.51c.36,.34,.54,.77,.54,1.28,0,.26-.05,.51-.16,.76-.11,.25-.28,.51-.53,.79-.25,.27-.65,.65-1.22,1.13-.48,.4-.78,.67-.92,.81-.13,.14-.25,.28-.33,.43h3.16Z"/><path class="cls-1" d="M133.75,92.27c0,1.06,.12,1.77,.37,2.11,.25,.35,.55,.52,.92,.52s.67-.18,.92-.52c.25-.35,.37-1.05,.37-2.11s-.12-1.77-.37-2.11c-.25-.35-.55-.52-.93-.52s-.65,.15-.87,.46c-.27,.39-.41,1.12-.41,2.17m-.81,0c0-.76,.08-1.38,.23-1.84,.16-.47,.39-.83,.7-1.08,.31-.25,.7-.38,1.16-.38,.35,0,.65,.07,.91,.21,.26,.14,.48,.34,.65,.6,.17,.26,.3,.58,.4,.96,.1,.38,.15,.89,.15,1.52,0,.76-.08,1.37-.23,1.83-.15,.47-.39,.82-.7,1.08-.31,.25-.7,.38-1.17,.38-.62,0-1.11-.22-1.46-.66-.42-.54-.64-1.41-.64-2.62Z"/><path class="cls-1" d="M142.09,94.69v.76h-4.27c0-.19,.03-.37,.09-.55,.11-.29,.28-.58,.53-.86,.24-.28,.59-.6,1.03-.97,.7-.57,1.17-1.03,1.42-1.36,.25-.34,.37-.65,.37-.95s-.11-.58-.34-.79c-.22-.21-.52-.32-.88-.32-.38,0-.69,.11-.92,.34-.23,.23-.35,.54-.35,.95l-.81-.08c.06-.61,.27-1.07,.63-1.39,.36-.32,.85-.48,1.47-.48s1.11,.17,1.47,.51c.36,.34,.54,.77,.54,1.28,0,.26-.05,.51-.16,.76-.11,.25-.28,.51-.53,.79-.25,.27-.65,.65-1.22,1.13-.48,.4-.78,.67-.92,.81-.14,.14-.25,.28-.33,.43h3.16Z"/><path class="cls-1" d="M142.95,93.73l.79-.11c.09,.45,.24,.77,.46,.97,.22,.2,.48,.3,.8,.3,.38,0,.69-.13,.95-.39,.26-.26,.38-.58,.38-.96s-.12-.66-.36-.9c-.24-.24-.54-.35-.91-.35-.15,0-.34,.03-.56,.09l.09-.69c.05,0,.1,0,.13,0,.34,0,.64-.09,.91-.26,.27-.18,.41-.45,.41-.81,0-.29-.1-.53-.3-.72-.2-.19-.45-.28-.76-.28s-.57,.1-.77,.29c-.21,.2-.34,.49-.4,.88l-.79-.14c.1-.53,.32-.94,.66-1.24,.34-.29,.77-.44,1.28-.44,.35,0,.68,.07,.97,.23,.3,.15,.52,.36,.68,.61,.16,.26,.24,.54,.24,.83,0,.28-.08,.53-.22,.76-.15,.23-.37,.41-.66,.54,.38,.09,.68,.27,.89,.55,.21,.28,.31,.62,.31,1.04,0,.56-.21,1.04-.61,1.43-.41,.39-.93,.59-1.56,.59-.57,0-1.03-.17-1.41-.51-.38-.34-.59-.77-.64-1.31"/><path class="cls-1" d="M148.69,97.33h-.57c.88-1.41,1.31-2.81,1.31-4.22,0-.55-.06-1.1-.19-1.64-.1-.44-.24-.86-.42-1.27-.11-.26-.35-.7-.71-1.32h.57c.55,.74,.96,1.47,1.22,2.21,.23,.64,.34,1.31,.34,2,0,.79-.15,1.56-.45,2.29-.3,.74-.67,1.38-1.1,1.93"/><path class="cls-1" d="M39.91,90.59l.05,.35c-.11,.02-.21,.04-.3,.04-.14,0-.25-.02-.33-.07-.08-.05-.13-.1-.17-.18-.03-.07-.05-.23-.05-.47v-1.35h-.29v-.31h.29v-.58l.4-.24v.82h.4v.31h-.4v1.37c0,.11,0,.19,.02,.22,.01,.03,.04,.06,.07,.08,.03,.02,.08,.03,.13,.03,.04,0,.1,0,.17-.02"/><path class="cls-1" d="M40.3,90.94v-3.22h.4v1.16c.18-.22,.42-.32,.7-.32,.17,0,.32,.03,.45,.1,.13,.07,.22,.16,.27,.28,.05,.12,.08,.29,.08,.52v1.48h-.4v-1.48c0-.2-.04-.34-.13-.43-.09-.09-.21-.13-.36-.13-.12,0-.23,.03-.33,.09-.1,.06-.18,.14-.22,.25-.04,.1-.07,.25-.07,.43v1.27h-.4Z"/><path class="cls-3" d="M29.12,93.73l.79-.11c.09,.45,.24,.77,.46,.97,.22,.2,.48,.3,.8,.3,.38,0,.69-.13,.95-.39,.26-.26,.38-.58,.38-.96s-.12-.66-.36-.9c-.24-.24-.54-.35-.91-.35-.15,0-.34,.03-.56,.09l.09-.69c.05,0,.1,0,.13,0,.34,0,.64-.09,.91-.26,.27-.18,.41-.45,.41-.81,0-.29-.1-.53-.3-.72-.2-.19-.45-.28-.76-.28s-.57,.1-.77,.29c-.21,.2-.34,.49-.4,.88l-.79-.14c.1-.53,.32-.94,.66-1.24,.34-.29,.77-.44,1.28-.44,.35,0,.68,.07,.97,.23,.3,.15,.52,.36,.68,.61,.16,.26,.24,.54,.24,.83,0,.28-.08,.53-.22,.76-.15,.23-.37,.41-.66,.54,.38,.09,.68,.27,.89,.55,.21,.28,.31,.62,.31,1.04,0,.56-.21,1.04-.61,1.43-.41,.39-.93,.59-1.56,.59-.57,0-1.03-.17-1.41-.51-.38-.34-.59-.77-.64-1.31Z"/><path class="cls-3" d="M34.13,93.75l.83-.06c.06,.4,.2,.71,.43,.91,.22,.2,.49,.3,.81,.3,.39,0,.71-.14,.97-.43,.26-.29,.39-.67,.39-1.14s-.12-.81-.38-1.07c-.25-.26-.58-.39-.99-.39-.26,0-.49,.06-.69,.18-.2,.12-.36,.27-.48,.45l-.75-.11,.62-3.31h3.2v.76h-2.56l-.34,1.74c.39-.27,.79-.41,1.21-.41,.56,0,1.03,.19,1.42,.58,.39,.39,.58,.89,.58,1.5s-.17,1.09-.51,1.51c-.41,.52-.98,.78-1.69,.78-.58,0-1.06-.16-1.43-.49-.37-.33-.58-.76-.63-1.31Z"/><path class="cls-3" d="M46.35,92.8h2.2l-.67-1.79c-.2-.54-.36-.99-.46-1.35-.09,.42-.21,.83-.36,1.24l-.71,1.89Zm-1.85,2.65l2.47-6.44h.94l2.62,6.44h-.97l-.75-1.95h-2.71l-.7,1.95h-.9Z"/><path class="cls-3" d="M51.11,95.44v-4.67h.71v.66c.34-.51,.84-.76,1.48-.76,.28,0,.54,.05,.78,.15,.24,.1,.41,.23,.53,.4,.12,.16,.2,.36,.25,.58,.03,.15,.04,.4,.04,.77v2.87h-.79v-2.84c0-.32-.03-.56-.09-.72-.06-.16-.17-.29-.33-.38-.16-.09-.34-.14-.55-.14-.34,0-.63,.11-.87,.32-.24,.21-.37,.62-.37,1.22v2.55h-.79Z"/><path class="cls-3" d="M56.11,95.44v-4.67h.71v.66c.34-.51,.84-.76,1.48-.76,.28,0,.54,.05,.78,.15,.24,.1,.41,.23,.53,.4,.12,.16,.2,.36,.25,.58,.03,.15,.04,.4,.04,.77v2.87h-.79v-2.84c0-.32-.03-.56-.09-.72-.06-.16-.17-.29-.33-.38-.16-.09-.34-.14-.55-.14-.34,0-.63,.11-.87,.32-.24,.21-.37,.62-.37,1.22v2.55h-.79Z"/><path class="cls-3" d="M61.12,95.44v-4.67h.79v4.67h-.79Zm0-5.54v-.9h.79v.9h-.79Z"/><path class="cls-3" d="M64.39,95.44l-1.76-4.67h.85l1,2.8c.11,.3,.21,.61,.3,.94,.07-.25,.17-.54,.3-.89l1.04-2.85h.81l-1.77,4.67h-.76Z"/><path class="cls-3" d="M68.21,92.66h2.6c-.03-.39-.13-.69-.3-.88-.25-.3-.58-.46-.98-.46-.36,0-.67,.12-.92,.36-.25,.24-.38,.57-.41,.98Zm2.59,1.27l.82,.11c-.13,.48-.37,.85-.71,1.11-.35,.26-.79,.39-1.33,.39-.68,0-1.22-.21-1.62-.63-.4-.42-.6-1.01-.6-1.77s.2-1.39,.6-1.82c.4-.43,.93-.65,1.57-.65s1.13,.21,1.53,.64c.39,.42,.59,1.02,.59,1.79,0,.05,0,.12,0,.21h-3.48c.03,.51,.17,.9,.44,1.18,.26,.27,.58,.41,.97,.41,.29,0,.54-.08,.74-.23,.21-.15,.37-.4,.49-.73Z"/><path class="cls-3" d="M72.61,95.44v-4.67h.71v.72c.18-.33,.35-.55,.5-.66,.15-.11,.32-.16,.51-.16,.27,0,.54,.08,.81,.25l-.28,.73c-.19-.11-.38-.16-.58-.16-.17,0-.33,.05-.46,.16-.14,.1-.23,.25-.29,.43-.09,.28-.13,.59-.13,.92v2.44h-.79Z"/><path class="cls-3" d="M75.3,94.05l.78-.13c.04,.31,.17,.55,.37,.72,.2,.17,.48,.25,.84,.25s.63-.07,.81-.22c.18-.15,.26-.32,.26-.52,0-.18-.08-.32-.24-.42-.11-.07-.38-.16-.81-.27-.58-.15-.98-.27-1.2-.38-.22-.11-.39-.25-.51-.44-.12-.19-.17-.4-.17-.62,0-.21,.05-.4,.14-.58,.1-.18,.23-.32,.39-.44,.12-.09,.29-.17,.5-.23,.21-.06,.44-.09,.68-.09,.37,0,.69,.05,.96,.16,.28,.11,.48,.25,.61,.43,.13,.18,.22,.42,.27,.73l-.77,.11c-.03-.24-.14-.43-.3-.57-.17-.14-.41-.2-.71-.2-.36,0-.62,.06-.78,.18-.15,.12-.23,.26-.23,.42,0,.1,.03,.2,.1,.28,.06,.08,.16,.15,.3,.21,.08,.03,.31,.1,.7,.2,.56,.15,.95,.27,1.17,.37,.22,.09,.4,.23,.52,.41,.13,.18,.19,.41,.19,.68s-.08,.51-.23,.74c-.15,.23-.38,.41-.67,.54-.29,.13-.62,.19-.99,.19-.61,0-1.07-.13-1.39-.38-.32-.25-.52-.62-.61-1.12Z"/><path class="cls-3" d="M83.11,93.1c-.29,.12-.72,.22-1.3,.3-.33,.05-.56,.1-.69,.16-.14,.06-.24,.14-.31,.26-.07,.11-.11,.24-.11,.38,0,.21,.08,.38,.24,.52,.16,.14,.39,.21,.7,.21s.58-.07,.81-.2c.24-.13,.41-.31,.52-.54,.09-.18,.13-.44,.13-.79v-.29Zm.07,1.75c-.29,.25-.58,.43-.85,.53-.27,.1-.56,.15-.87,.15-.51,0-.91-.12-1.18-.38-.28-.25-.41-.57-.41-.96,0-.23,.05-.44,.16-.63,.11-.19,.24-.34,.41-.45,.17-.11,.36-.2,.57-.26,.16-.04,.39-.08,.7-.12,.64-.08,1.11-.17,1.41-.27,0-.11,0-.18,0-.21,0-.32-.08-.55-.22-.68-.2-.18-.5-.27-.9-.27-.37,0-.65,.07-.83,.2-.18,.13-.31,.36-.39,.69l-.77-.11c.07-.33,.19-.6,.35-.8,.16-.2,.4-.36,.7-.47,.3-.11,.66-.17,1.06-.17s.72,.05,.98,.14c.25,.09,.43,.21,.55,.35,.12,.14,.2,.32,.25,.54,.03,.13,.04,.38,.04,.73v1.05c0,.73,.02,1.2,.05,1.39,.03,.2,.1,.38,.19,.56h-.83c-.08-.17-.13-.36-.15-.59Z"/><path class="cls-3" d="M85.12,95.44v-4.67h.71v.72c.18-.33,.35-.55,.5-.66,.15-.11,.32-.16,.51-.16,.27,0,.54,.08,.81,.25l-.28,.73c-.19-.11-.38-.16-.58-.16-.17,0-.33,.05-.46,.16-.14,.1-.23,.25-.29,.43-.09,.28-.13,.59-.13,.92v2.44h-.79Z"/><path class="cls-3" d="M88.09,97.24l-.09-.73c.17,.05,.32,.07,.45,.07,.18,0,.32-.03,.42-.09,.11-.06,.19-.14,.26-.25,.05-.08,.13-.28,.24-.59,.01-.04,.04-.11,.07-.19l-1.77-4.69h.85l.97,2.7c.13,.34,.24,.7,.34,1.08,.09-.36,.2-.71,.33-1.05l1-2.72h.79l-1.77,4.75c-.19,.51-.34,.86-.45,1.06-.14,.26-.3,.45-.48,.57-.18,.12-.4,.18-.65,.18-.15,0-.32-.03-.51-.09Z"/><path class="cls-3" d="M96.63,97.33c-.44-.55-.8-1.19-1.11-1.93-.3-.74-.45-1.5-.45-2.29,0-.7,.11-1.37,.34-2,.26-.74,.67-1.48,1.22-2.21h.57c-.35,.61-.59,1.04-.7,1.31-.18,.4-.32,.82-.42,1.26-.13,.55-.19,1.1-.19,1.65,0,1.41,.44,2.82,1.31,4.22h-.57Z"/><path class="cls-3" d="M100.87,95.44h-.79v-5.04c-.19,.18-.44,.36-.75,.55-.31,.18-.59,.32-.83,.41v-.77c.44-.21,.83-.46,1.16-.76,.33-.3,.57-.58,.7-.86h.51v6.47Z"/><path class="cls-3" d="M106.26,91.11c0-.45-.12-.81-.36-1.08-.24-.27-.53-.4-.87-.4s-.66,.14-.92,.43c-.26,.29-.39,.66-.39,1.11,0,.41,.12,.74,.37,1,.25,.26,.55,.38,.92,.38s.67-.13,.9-.38c.24-.26,.35-.61,.35-1.06Zm-3.23,2.84l.76-.06c.06,.36,.19,.62,.37,.78,.18,.16,.41,.24,.7,.24,.24,0,.46-.06,.64-.17,.18-.11,.33-.26,.45-.45,.12-.19,.21-.44,.29-.75,.08-.32,.12-.64,.12-.97,0-.03,0-.09,0-.16-.16,.25-.37,.46-.65,.61-.27,.16-.57,.24-.89,.24-.53,0-.98-.19-1.35-.58-.37-.39-.55-.9-.55-1.53s.19-1.18,.58-1.58c.38-.4,.87-.6,1.45-.6,.42,0,.8,.11,1.15,.34,.35,.22,.61,.55,.79,.96,.18,.42,.27,1.02,.27,1.81s-.09,1.48-.27,1.97c-.18,.49-.45,.86-.8,1.11-.35,.25-.76,.38-1.24,.38-.5,0-.91-.14-1.23-.42-.32-.28-.51-.67-.57-1.18Z"/><path class="cls-3" d="M108.72,93.59c0,.23,.05,.44,.16,.66,.1,.21,.26,.37,.48,.49,.21,.12,.44,.17,.68,.17,.38,0,.69-.12,.94-.36,.24-.24,.37-.55,.37-.93s-.13-.7-.38-.95c-.25-.25-.57-.37-.95-.37s-.68,.12-.93,.37c-.24,.25-.36,.55-.36,.92Zm.26-2.98c0,.31,.1,.56,.29,.75,.2,.19,.45,.29,.77,.29s.56-.1,.75-.29c.19-.19,.29-.43,.29-.71s-.1-.54-.3-.73c-.2-.2-.45-.3-.75-.3s-.56,.1-.75,.29c-.2,.19-.3,.42-.3,.69Zm.16,1.34c-.33-.12-.57-.29-.73-.51-.16-.22-.24-.49-.24-.8,0-.47,.17-.86,.5-1.18,.34-.32,.78-.48,1.34-.48s1.01,.16,1.36,.49c.34,.33,.51,.72,.51,1.19,0,.3-.08,.56-.23,.78-.16,.22-.39,.39-.71,.51,.39,.13,.69,.34,.9,.62,.21,.29,.31,.63,.31,1.03,0,.55-.2,1.01-.58,1.39-.39,.38-.9,.56-1.54,.56s-1.15-.19-1.54-.56c-.39-.38-.58-.85-.58-1.41,0-.42,.11-.77,.32-1.05,.21-.28,.52-.48,.91-.58Z"/><path class="cls-3" d="M113.72,93.59c0,.23,.05,.44,.16,.66,.1,.21,.26,.37,.48,.49,.21,.12,.44,.17,.68,.17,.38,0,.69-.12,.94-.36,.24-.24,.37-.55,.37-.93s-.13-.7-.38-.95c-.25-.25-.57-.37-.95-.37s-.68,.12-.93,.37c-.24,.25-.36,.55-.36,.92Zm.26-2.98c0,.31,.1,.56,.29,.75,.2,.19,.45,.29,.77,.29s.56-.1,.75-.29c.19-.19,.29-.43,.29-.71s-.1-.54-.3-.73c-.2-.2-.45-.3-.75-.3s-.55,.1-.75,.29c-.2,.19-.3,.42-.3,.69Zm.16,1.34c-.33-.12-.57-.29-.73-.51-.16-.22-.24-.49-.24-.8,0-.47,.17-.86,.5-1.18,.34-.32,.78-.48,1.34-.48s1.01,.16,1.36,.49c.34,.33,.51,.72,.51,1.19,0,.3-.08,.56-.23,.78-.16,.22-.39,.39-.71,.51,.39,.13,.69,.34,.9,.62,.21,.29,.31,.63,.31,1.03,0,.55-.19,1.01-.58,1.39-.39,.38-.9,.56-1.54,.56s-1.15-.19-1.54-.56c-.39-.38-.58-.85-.58-1.41,0-.42,.11-.77,.32-1.05,.21-.28,.52-.48,.91-.58Z"/><rect class="cls-3" x="120.03" y="92.79" width="5" height=".64"/><path class="cls-3" d="M132.08,94.69v.76h-4.27c0-.19,.03-.37,.09-.55,.11-.29,.28-.58,.53-.86,.24-.28,.59-.6,1.03-.97,.7-.57,1.17-1.03,1.42-1.36,.25-.34,.37-.65,.37-.95s-.11-.58-.34-.79c-.22-.21-.52-.32-.88-.32-.38,0-.69,.11-.92,.34-.23,.23-.35,.54-.35,.95l-.81-.08c.06-.61,.27-1.07,.63-1.39,.36-.32,.85-.48,1.47-.48s1.11,.17,1.47,.51c.36,.34,.54,.77,.54,1.28,0,.26-.05,.51-.16,.76-.11,.25-.28,.51-.53,.79-.25,.27-.65,.65-1.22,1.13-.48,.4-.78,.67-.92,.81-.13,.14-.25,.28-.33,.43h3.16Z"/><path class="cls-3" d="M133.75,92.27c0,1.06,.12,1.77,.37,2.11,.25,.35,.55,.52,.92,.52s.67-.18,.92-.52c.25-.35,.37-1.05,.37-2.11s-.12-1.77-.37-2.11c-.25-.35-.55-.52-.93-.52s-.65,.15-.87,.46c-.27,.39-.41,1.12-.41,2.17Zm-.81,0c0-.76,.08-1.38,.23-1.84,.16-.47,.39-.83,.7-1.08,.31-.25,.7-.38,1.16-.38,.35,0,.65,.07,.91,.21,.26,.14,.48,.34,.65,.6,.17,.26,.3,.58,.4,.96,.1,.38,.15,.89,.15,1.52,0,.76-.08,1.37-.23,1.83-.15,.47-.39,.82-.7,1.08-.31,.25-.7,.38-1.17,.38-.62,0-1.11-.22-1.46-.66-.42-.54-.64-1.41-.64-2.62Z"/><path class="cls-3" d="M142.09,94.69v.76h-4.27c0-.19,.03-.37,.09-.55,.11-.29,.28-.58,.53-.86,.24-.28,.59-.6,1.03-.97,.7-.57,1.17-1.03,1.42-1.36,.25-.34,.37-.65,.37-.95s-.11-.58-.34-.79c-.22-.21-.52-.32-.88-.32-.38,0-.69,.11-.92,.34-.23,.23-.35,.54-.35,.95l-.81-.08c.06-.61,.27-1.07,.63-1.39,.36-.32,.85-.48,1.47-.48s1.11,.17,1.47,.51c.36,.34,.54,.77,.54,1.28,0,.26-.05,.51-.16,.76-.11,.25-.28,.51-.53,.79-.25,.27-.65,.65-1.22,1.13-.48,.4-.78,.67-.92,.81-.14,.14-.25,.28-.33,.43h3.16Z"/><path class="cls-3" d="M142.95,93.73l.79-.11c.09,.45,.24,.77,.46,.97,.22,.2,.48,.3,.8,.3,.38,0,.69-.13,.95-.39,.26-.26,.38-.58,.38-.96s-.12-.66-.36-.9c-.24-.24-.54-.35-.91-.35-.15,0-.34,.03-.56,.09l.09-.69c.05,0,.1,0,.13,0,.34,0,.64-.09,.91-.26,.27-.18,.41-.45,.41-.81,0-.29-.1-.53-.3-.72-.2-.19-.45-.28-.76-.28s-.57,.1-.77,.29c-.21,.2-.34,.49-.4,.88l-.79-.14c.1-.53,.32-.94,.66-1.24,.34-.29,.77-.44,1.28-.44,.35,0,.68,.07,.97,.23,.3,.15,.52,.36,.68,.61,.16,.26,.24,.54,.24,.83,0,.28-.08,.53-.22,.76-.15,.23-.37,.41-.66,.54,.38,.09,.68,.27,.89,.55,.21,.28,.31,.62,.31,1.04,0,.56-.21,1.04-.61,1.43-.41,.39-.93,.59-1.56,.59-.57,0-1.03-.17-1.41-.51-.38-.34-.59-.77-.64-1.31Z"/><path class="cls-3" d="M148.69,97.33h-.57c.88-1.41,1.31-2.81,1.31-4.22,0-.55-.06-1.1-.19-1.64-.1-.44-.24-.86-.42-1.27-.11-.26-.35-.7-.71-1.32h.57c.55,.74,.96,1.47,1.22,2.21,.23,.64,.34,1.31,.34,2,0,.79-.15,1.56-.45,2.29-.3,.74-.67,1.38-1.1,1.93Z"/><path class="cls-3" d="M39.91,90.59l.05,.35c-.11,.02-.21,.04-.3,.04-.14,0-.25-.02-.33-.07-.08-.05-.13-.1-.17-.18-.03-.07-.05-.23-.05-.47v-1.35h-.29v-.31h.29v-.58l.4-.24v.82h.4v.31h-.4v1.37c0,.11,0,.19,.02,.22,.01,.03,.04,.06,.07,.08,.03,.02,.08,.03,.13,.03,.04,0,.1,0,.17-.02Z"/><path class="cls-3" d="M40.3,90.94v-3.22h.4v1.16c.18-.22,.42-.32,.7-.32,.17,0,.32,.03,.45,.1,.13,.07,.22,.16,.27,.28,.05,.12,.08,.29,.08,.52v1.48h-.4v-1.48c0-.2-.04-.34-.13-.43-.09-.09-.21-.13-.36-.13-.12,0-.23,.03-.33,.09-.1,.06-.18,.14-.22,.25-.04,.1-.07,.25-.07,.43v1.27h-.4Z"/></svg>